 <svg xmlns="http://www.w3.org/2000/svg" viewBox="-6570.6075439453125 -7652.4161376953125 15568.480102539062 12886.992584228516" style="background-color:black">
<circle cx="-5750.279296875" cy="-1378.72265625" r="111.31127166748047" fill="rgb(20, 166, 180)" />
<circle cx="-2521.457763671875" cy="-666.322265625" r="108.74714660644531" fill="rgb(20, 166, 180)" />
<circle cx="5659.02099609375" cy="3911.39501953125" r="179.17498779296875" fill="rgb(77, 86, 250)" />
<circle cx="-523.1188354492188" cy="3358.329833984375" r="125.80851745605469" fill="rgb(12, 177, 170)" />
<circle cx="3853.7412109375" cy="234.36395263671875" r="110.65400695800781" fill="rgb(77, 86, 250)" />
<circle cx="8235.27734375" cy="-3378.508544921875" r="122.32540130615234" fill="rgb(61, 108, 231)" />
<circle cx="-339.5574951171875" cy="-26.7978515625" r="135.39988708496094" fill="rgb(30, 152, 192)" />
<circle cx="-3638.15478515625" cy="3403.29248046875" r="589.804931640625" fill="rgb(8, 182, 166)" />
<circle cx="-356.838134765625" cy="-1077.4267578125" r="239.41323852539062" fill="rgb(18, 168, 178)" />
<circle cx="6832.63037109375" cy="2122.09423828125" r="131.34608459472656" fill="rgb(73, 92, 245)" />
<circle cx="2659.42919921875" cy="-5410.9794921875" r="125.08238220214844" fill="rgb(47, 127, 214)" />
<circle cx="-1645.135498046875" cy="2612.39453125" r="115.85310363769531" fill="rgb(6, 185, 163)" />
<circle cx="4147.9501953125" cy="1517.141845703125" r="106.20270538330078" fill="rgb(79, 84, 253)" />
<circle cx="3583.33447265625" cy="587.9957885742188" r="105.80912780761719" fill="rgb(77, 86, 250)" />
<circle cx="4714.49560546875" cy="-145.30303955078125" r="114.62908935546875" fill="rgb(63, 106, 233)" />
<circle cx="4828.83740234375" cy="4510.07275390625" r="132.8180389404297" fill="rgb(79, 84, 253)" />
<circle cx="767.485107421875" cy="3009.769287109375" r="129.48841857910156" fill="rgb(10, 179, 168)" />
<circle cx="4642.90478515625" cy="286.83953857421875" r="103.53034210205078" fill="rgb(63, 106, 233)" />
<circle cx="-5531.59912109375" cy="1658.017822265625" r="113.08038330078125" fill="rgb(14, 174, 173)" />
<circle cx="-5381.87158203125" cy="-3035.6533203125" r="105.9685287475586" fill="rgb(22, 163, 183)" />
<circle cx="688.4296875" cy="-7215.52587890625" r="162.06919860839844" fill="rgb(38, 141, 202)" />
<circle cx="619.387939453125" cy="1461.7822265625" r="140.7583770751953" fill="rgb(10, 179, 168)" />
<circle cx="3966.75830078125" cy="747.3573608398438" r="111.51199340820312" fill="rgb(79, 84, 253)" />
<circle cx="-3272.029541015625" cy="-2093.50341796875" r="110.04199981689453" fill="rgb(40, 138, 204)" />
<circle cx="6924.65087890625" cy="2475.501953125" r="112.92098999023438" fill="rgb(73, 92, 245)" />
<circle cx="-5634.41357421875" cy="-3649.92333984375" r="107.0055923461914" fill="rgb(22, 163, 183)" />
<circle cx="4153.91650390625" cy="-6676.97412109375" r="148.27757263183594" fill="rgb(51, 122, 219)" />
<circle cx="1945.891357421875" cy="-4263.93359375" r="144.2100067138672" fill="rgb(49, 125, 216)" />
<circle cx="-5509.39111328125" cy="-1586.98681640625" r="119.68452453613281" fill="rgb(20, 166, 180)" />
<circle cx="-1176.7548828125" cy="2395.06591796875" r="117.55333709716797" fill="rgb(8, 182, 166)" />
<circle cx="8473.20703125" cy="-1747.26318359375" r="110.32144165039062" fill="rgb(63, 106, 233)" />
<circle cx="-3757.142822265625" cy="4262.7177734375" r="115.8235855102539" fill="rgb(8, 182, 166)" />
<circle cx="1638.98193359375" cy="-7315.599609375" r="336.8165283203125" fill="rgb(40, 138, 204)" />
<circle cx="-2334.919921875" cy="-5590.00244140625" r="112.66319274902344" fill="rgb(30, 152, 192)" />
<circle cx="-882.074951171875" cy="1007.392578125" r="130.77540588378906" fill="rgb(12, 177, 170)" />
<circle cx="3594.01025390625" cy="5044.9560546875" r="189.62039184570312" fill="rgb(81, 81, 255)" />
<circle cx="3886.253662109375" cy="-3325.629150390625" r="116.73470306396484" fill="rgb(41, 136, 207)" />
<circle cx="4323.818359375" cy="2043.734619140625" r="116.29586791992188" fill="rgb(79, 84, 253)" />
<circle cx="3814.806396484375" cy="-3806.127685546875" r="131.43856811523438" fill="rgb(43, 133, 209)" />
<circle cx="-2085.157958984375" cy="2402.7548828125" r="119.33031463623047" fill="rgb(8, 182, 166)" />
<circle cx="-2856.08642578125" cy="1013.4736328125" r="198.7906494140625" fill="rgb(20, 166, 180)" />
<circle cx="2676.271728515625" cy="-4940.12890625" r="134.66783142089844" fill="rgb(49, 125, 216)" />
<circle cx="4245.59375" cy="466.85418701171875" r="110.3175048828125" fill="rgb(79, 84, 253)" />
<circle cx="5977.6953125" cy="-5586.5654296875" r="147.27593994140625" fill="rgb(57, 114, 226)" />
<circle cx="-5262.775390625" cy="1476.0792236328125" r="122.49266815185547" fill="rgb(14, 174, 173)" />
<circle cx="801.56201171875" cy="4705.2978515625" r="106.06101989746094" fill="rgb(0, 193, 156)" />
<circle cx="-5597.45654296875" cy="-2745.07861328125" r="114.57792663574219" fill="rgb(22, 163, 183)" />
<circle cx="-6083.34716796875" cy="-3066.6083984375" r="106.15547180175781" fill="rgb(22, 163, 183)" />
<circle cx="537.594482421875" cy="-405.4736328125" r="121.3395004272461" fill="rgb(30, 152, 192)" />
<circle cx="927.2705078125" cy="-1484.5108642578125" r="125.31458282470703" fill="rgb(32, 149, 195)" />
<circle cx="-1567.915283203125" cy="121.791259765625" r="127.58943176269531" fill="rgb(14, 174, 173)" />
<circle cx="-5551.47998046875" cy="1292.944091796875" r="120.90657043457031" fill="rgb(14, 174, 173)" />
<circle cx="7098.3857421875" cy="-141.8875732421875" r="178.89752197265625" fill="rgb(67, 100, 238)" />
<circle cx="-2904.654052734375" cy="-2432.20458984375" r="139.18605041503906" fill="rgb(40, 138, 204)" />
<circle cx="4580.55908203125" cy="684.4332885742188" r="105.92720031738281" fill="rgb(79, 84, 253)" />
<circle cx="741.0048828125" cy="4999.677734375" r="102.31814575195312" fill="rgb(0, 193, 156)" />
<circle cx="3792.119873046875" cy="-4369.6044921875" r="121.06597137451172" fill="rgb(43, 133, 209)" />
<circle cx="-1854.901611328125" cy="4919.953125" r="112.39950561523438" fill="rgb(6, 185, 163)" />
<circle cx="-3639.8955078125" cy="-2239.880615234375" r="109.44770812988281" fill="rgb(40, 138, 204)" />
<circle cx="-4150.30517578125" cy="1691.0174560546875" r="113.81242370605469" fill="rgb(12, 177, 170)" />
<circle cx="-6154.54248046875" cy="268.7647705078125" r="111.97247314453125" fill="rgb(18, 168, 178)" />
<circle cx="-4287.67919921875" cy="-3848.819580078125" r="115.71337890625" fill="rgb(28, 155, 190)" />
<circle cx="97.002685546875" cy="3141.578369140625" r="128.72291564941406" fill="rgb(12, 177, 170)" />
<circle cx="4373.5986328125" cy="-3196.93359375" r="135.91546630859375" fill="rgb(41, 136, 207)" />
<circle cx="3136.833984375" cy="-2763.6533203125" r="139.46942138671875" fill="rgb(47, 127, 214)" />
<circle cx="-6328.22607421875" cy="-2787.2294921875" r="118.94854736328125" fill="rgb(22, 163, 183)" />
<circle cx="2758.348388671875" cy="-4000.455810546875" r="142.09060668945312" fill="rgb(47, 127, 214)" />
<circle cx="3473.120361328125" cy="-4095.065185546875" r="150.23362731933594" fill="rgb(47, 127, 214)" />
<circle cx="-1354.313232421875" cy="1141.728759765625" r="125.818359375" fill="rgb(8, 182, 166)" />
<circle cx="-2800.59912109375" cy="-220.1982421875" r="113.9068832397461" fill="rgb(20, 166, 180)" />
<circle cx="-3229.33056640625" cy="-1778.0106201171875" r="113.48379516601562" fill="rgb(40, 138, 204)" />
<circle cx="-6337.2958984375" cy="-552.5853271484375" r="113.2811050415039" fill="rgb(18, 168, 178)" />
<circle cx="8427.98828125" cy="-3073.311279296875" r="128.86460876464844" fill="rgb(61, 108, 231)" />
<circle cx="189.345458984375" cy="15.1878662109375" r="113.43656921386719" fill="rgb(30, 152, 192)" />
<circle cx="4236.64013671875" cy="-3622.943359375" r="129.1046905517578" fill="rgb(43, 133, 209)" />
<circle cx="337.18017578125" cy="-969.162109375" r="157.67214965820312" fill="rgb(30, 152, 192)" />
<circle cx="6669.1279296875" cy="1229.1131591796875" r="123.45692443847656" fill="rgb(69, 97, 241)" />
<circle cx="819.3359375" cy="2651.4345703125" r="115.09744262695312" fill="rgb(8, 182, 166)" />
<circle cx="-5868.783203125" cy="-230.1939697265625" r="369.8274230957031" fill="rgb(18, 168, 178)" />
<circle cx="6576.20703125" cy="2376.3984375" r="112.79898071289062" fill="rgb(73, 92, 245)" />
<circle cx="1372.514404296875" cy="-6767.52490234375" r="119.34211730957031" fill="rgb(40, 138, 204)" />
<circle cx="-3547.06396484375" cy="446.1826171875" r="429.50286865234375" fill="rgb(28, 155, 190)" />
<circle cx="4111.1083984375" cy="-4732.083984375" r="136.36019897460938" fill="rgb(41, 136, 207)" />
<circle cx="-1713.16552734375" cy="-6652.806640625" r="486.2560119628906" fill="rgb(32, 149, 195)" />
<circle cx="-2110.6103515625" cy="1874.42626953125" r="117.86228942871094" fill="rgb(8, 182, 166)" />
<circle cx="-1702.576171875" cy="670.9486083984375" r="133.01089477539062" fill="rgb(20, 166, 180)" />
<circle cx="-705.08935546875" cy="347.6435546875" r="152.08538818359375" fill="rgb(30, 152, 192)" />
<circle cx="-1939.907958984375" cy="-880.506591796875" r="125.61566925048828" fill="rgb(30, 152, 192)" />
<circle cx="2770.514404296875" cy="-3508.20166015625" r="135.35855102539062" fill="rgb(47, 127, 214)" />
<circle cx="-5731.283203125" cy="-1806.69482421875" r="109.07184600830078" fill="rgb(20, 166, 180)" />
<circle cx="5057.05517578125" cy="567.5370483398438" r="104.10496520996094" fill="rgb(63, 106, 233)" />
<circle cx="-1101.13330078125" cy="1695.439453125" r="118.63762664794922" fill="rgb(6, 185, 163)" />
<circle cx="-5048.84521484375" cy="-3500.27294921875" r="110.46902465820312" fill="rgb(22, 163, 183)" />
<circle cx="-364.912353515625" cy="959.383544921875" r="127.35525512695312" fill="rgb(12, 177, 170)" />
<circle cx="2632.844970703125" cy="-3029.4384765625" r="152.62261962890625" fill="rgb(45, 130, 212)" />
<circle cx="3642.0830078125" cy="1516.4189453125" r="107.8045425415039" fill="rgb(65, 103, 236)" />
<circle cx="-886.1237182617188" cy="3090.928466796875" r="123.61631774902344" fill="rgb(12, 177, 170)" />
<circle cx="6574.0068359375" cy="-5861.07861328125" r="386.8199157714844" fill="rgb(57, 114, 226)" />
<circle cx="3924.353515625" cy="1171.04541015625" r="113.02528381347656" fill="rgb(79, 84, 253)" />
<circle cx="-5800.44580078125" cy="-3393.05810546875" r="107.63727569580078" fill="rgb(22, 163, 183)" />
<circle cx="-634.6915283203125" cy="1489.79052734375" r="116.24273681640625" fill="rgb(6, 185, 163)" />
<circle cx="-2565.0673828125" cy="311.1103515625" r="121.55596923828125" fill="rgb(18, 168, 178)" />
<circle cx="3474.521240234375" cy="-3535.28857421875" r="152.14048767089844" fill="rgb(47, 127, 214)" />
<circle cx="7667.62255859375" cy="-4974.6787109375" r="390.8283996582031" fill="rgb(51, 122, 219)" />
<circle cx="4513.0693359375" cy="-4427.130859375" r="129.2837677001953" fill="rgb(81, 81, 255)" />
<circle cx="3557.947021484375" cy="4570.01171875" r="120.85147094726562" fill="rgb(81, 81, 255)" />
<circle cx="269.1103515625" cy="1965.0738525390625" r="117.46281433105469" fill="rgb(10, 179, 168)" />
<circle cx="307.012451171875" cy="2767.096923828125" r="136.3798828125" fill="rgb(4, 188, 161)" />
<circle cx="2666.43994140625" cy="-4451.857421875" r="133.00498962402344" fill="rgb(43, 133, 209)" />
<circle cx="8655.9052734375" cy="-3400.65771484375" r="184.73617553710938" fill="rgb(61, 108, 231)" />
<circle cx="7979.52587890625" cy="1154.648193359375" r="1000.0" fill="rgb(71, 95, 243)" />
<circle cx="-1594.742919921875" cy="2074.0400390625" r="123.46479797363281" fill="rgb(10, 179, 168)" />
<circle cx="8512.546875" cy="-2087.22607421875" r="127.9082260131836" fill="rgb(63, 106, 233)" />
<circle cx="4296.251953125" cy="965.2946166992188" r="111.83866119384766" fill="rgb(79, 84, 253)" />
<circle cx="-3667.182861328125" cy="-1870.483154296875" r="115.26077270507812" fill="rgb(40, 138, 204)" />
<circle cx="3113.26904296875" cy="-3245.27783203125" r="116.35884094238281" fill="rgb(47, 127, 214)" />
<circle cx="-1953.029541015625" cy="-1431.935546875" r="115.28241729736328" fill="rgb(26, 157, 187)" />
<circle cx="1545.5146484375" cy="-2384.6015625" r="126.7471923828125" fill="rgb(47, 127, 214)" />
<circle cx="8738.111328125" cy="-1534.3607177734375" r="129.6714324951172" fill="rgb(63, 106, 233)" />
<circle cx="-277.84912109375" cy="2162.40625" r="123.51005554199219" fill="rgb(10, 179, 168)" />
<circle cx="-1453.507080078125" cy="-1015.931396484375" r="106.47820281982422" fill="rgb(18, 168, 178)" />
<circle cx="-613.7132568359375" cy="-400.95751953125" r="118.95051574707031" fill="rgb(30, 152, 192)" />
<circle cx="631.6607666015625" cy="-1849.5538330078125" r="149.81643676757812" fill="rgb(24, 160, 185)" />
<circle cx="6734.7783203125" cy="127.8323974609375" r="114.6507339477539" fill="rgb(67, 100, 238)" />
<circle cx="-70.53912353515625" cy="3571.255615234375" r="120.4756088256836" fill="rgb(8, 182, 166)" />
<circle cx="3875.63134765625" cy="1914.69189453125" r="107.27715301513672" fill="rgb(73, 92, 245)" />
<circle cx="-6454.814453125" cy="123.86346435546875" r="114.29652404785156" fill="rgb(18, 168, 178)" />
<circle cx="7893.9189453125" cy="-993.8441162109375" r="111.34078979492188" fill="rgb(65, 103, 236)" />
<circle cx="5207.86572265625" cy="1689.30615234375" r="107.97180938720703" fill="rgb(67, 100, 238)" />
<circle cx="5464.54541015625" cy="296.91741943359375" r="117.3132553100586" fill="rgb(63, 106, 233)" />
<circle cx="688.18212890625" cy="139.0230712890625" r="126.50907897949219" fill="rgb(30, 152, 192)" />
<circle cx="5519.26220703125" cy="1306.017333984375" r="115.87671661376953" fill="rgb(75, 89, 248)" />
<circle cx="-2635.478515625" cy="-5772.9833984375" r="114.32604217529297" fill="rgb(30, 152, 192)" />
<circle cx="-1913.3984375" cy="4523.6923828125" r="112.79898071289062" fill="rgb(6, 185, 163)" />
<circle cx="-5765.42919921875" cy="-3081.1953125" r="106.01378631591797" fill="rgb(22, 163, 183)" />
<circle cx="-327.10198974609375" cy="2914.65087890625" r="112.65729522705078" fill="rgb(12, 177, 170)" />
<circle cx="-4414.2900390625" cy="1534.336181640625" r="115.94558715820312" fill="rgb(12, 177, 170)" />
<circle cx="6601.9306640625" cy="840.0236206054688" r="105.58676147460938" fill="rgb(69, 97, 241)" />
<circle cx="-1061.419921875" cy="-79.12451171875" r="131.556640625" fill="rgb(30, 152, 192)" />
<circle cx="-2252.734375" cy="876.16943359375" r="175.75877380371094" fill="rgb(22, 163, 183)" />
<circle cx="3112.251708984375" cy="-4334.466796875" r="140.12472534179688" fill="rgb(47, 127, 214)" />
<circle cx="4910.17333984375" cy="1381.927734375" r="111.79143524169922" fill="rgb(79, 84, 253)" />
<circle cx="-5379.25341796875" cy="-3424.65771484375" r="111.88785552978516" fill="rgb(22, 163, 183)" />
<circle cx="3548.33349609375" cy="-3012.243408203125" r="150.5229034423828" fill="rgb(43, 133, 209)" />
<circle cx="4762.39892578125" cy="1003.2577514648438" r="107.14137268066406" fill="rgb(79, 84, 253)" />
<circle cx="4177.44873046875" cy="-4101.703125" r="140.16407775878906" fill="rgb(43, 133, 209)" />
<circle cx="-2609.1611328125" cy="1538.705078125" r="151.5658721923828" fill="rgb(20, 166, 180)" />
<circle cx="5493.05029296875" cy="743.4066772460938" r="104.20729064941406" fill="rgb(63, 106, 233)" />
<circle cx="-2488.868896484375" cy="-1234.599609375" r="118.7478256225586" fill="rgb(28, 155, 190)" />
<circle cx="5386.759765625" cy="-6502.26953125" r="141.51992797851562" fill="rgb(55, 117, 224)" />
<circle cx="-3001.27197265625" cy="-775.329833984375" r="131.26145935058594" fill="rgb(22, 163, 183)" />
<circle cx="-2369.703369140625" cy="-2649.79150390625" r="123.70093536376953" fill="rgb(40, 138, 204)" />
<circle cx="-2417.9853515625" cy="-2273.869873046875" r="122.69338989257812" fill="rgb(40, 138, 204)" />
<circle cx="-57.2386474609375" cy="-479.000732421875" r="140.04010009765625" fill="rgb(16, 171, 175)" />
<circle cx="-1080.4681396484375" cy="-1395.75390625" r="111.97050476074219" fill="rgb(18, 168, 178)" />
<circle cx="-1512.348388671875" cy="-1725.49365234375" r="110.86260223388672" fill="rgb(18, 168, 178)" />
<circle cx="-5078.37060546875" cy="-3195.2451171875" r="105.85636138916016" fill="rgb(22, 163, 183)" />
<circle cx="-4358.794921875" cy="2564.9990234375" r="105.05347442626953" fill="rgb(10, 179, 168)" />
<circle cx="-1498.939697265625" cy="4740.5029296875" r="122.72093963623047" fill="rgb(6, 185, 163)" />
<circle cx="5956.65576171875" cy="3077.453125" r="106.25977325439453" fill="rgb(75, 89, 248)" />
<circle cx="-5975.1953125" cy="-1588.14306640625" r="118.58252716064453" fill="rgb(20, 166, 180)" />
<circle cx="4871.54931640625" cy="1993.671630859375" r="108.16859436035156" fill="rgb(67, 100, 238)" />
<circle cx="497.7794189453125" cy="4820.4453125" r="100.0" fill="rgb(0, 193, 156)" />
<circle cx="-3582.493896484375" cy="-1463.2188720703125" r="122.48873138427734" fill="rgb(40, 138, 204)" />
<circle cx="3144.6220703125" cy="-3788.390380859375" r="129.0948486328125" fill="rgb(47, 127, 214)" />
<circle cx="3223.23876953125" cy="-5251.771484375" r="162.08999633789062" fill="rgb(43, 133, 209)" />
<circle cx="-3383.73486328125" cy="4270.20068359375" r="120.34770202636719" fill="rgb(8, 182, 166)" />
<circle cx="-44.344970703125" cy="427.1904296875" r="131.77310180664062" fill="rgb(20, 166, 180)" />
<circle cx="2352.7431640625" cy="-4064.477294921875" r="125.40313720703125" fill="rgb(49, 125, 216)" />
<circle cx="3494.23828125" cy="1072.5911865234375" r="109.4181900024414" fill="rgb(65, 103, 236)" />
<circle cx="4569.78369140625" cy="1689.8525390625" r="115.00691986083984" fill="rgb(79, 84, 253)" />
<circle cx="-134.68359375" cy="1571.13525390625" r="128.55172729492188" fill="rgb(10, 179, 168)" />
<circle cx="-2623.1376953125" cy="-5422.15966796875" r="110.55758666992188" fill="rgb(30, 152, 192)" />
<circle cx="4489.46337890625" cy="1295.998046875" r="111.11448669433594" fill="rgb(79, 84, 253)" />
<circle cx="5319.1357421875" cy="3742.902099609375" r="122.34901428222656" fill="rgb(77, 86, 250)" />
<circle cx="-1622.763916015625" cy="1546.8529052734375" r="123.98628234863281" fill="rgb(6, 185, 163)" />
<circle cx="-2115.331298828125" cy="-309.043701171875" r="113.0036392211914" fill="rgb(20, 166, 180)" />
<circle cx="3987.864990234375" cy="-2788.53369140625" r="152.67770385742188" fill="rgb(43, 133, 209)" />
<circle cx="8360.7734375" cy="-3720.95703125" r="130.0295867919922" fill="rgb(61, 108, 231)" />
<circle cx="2340.59765625" cy="-3590.228515625" r="130.73211669921875" fill="rgb(47, 127, 214)" />
<circle cx="-1940.9014892578125" cy="-2428.2373046875" r="118.93083953857422" fill="rgb(40, 138, 204)" />
<circle cx="4609.21484375" cy="4233.1826171875" r="127.35919189453125" fill="rgb(79, 84, 253)" />
<circle cx="3777.466552734375" cy="-5130.2001953125" r="135.34280395507812" fill="rgb(43, 133, 209)" />
<circle cx="-5433.189453125" cy="683.8743896484375" r="118.11811065673828" fill="rgb(16, 171, 175)" />
<circle cx="-6456.96435546875" cy="-242.089599609375" r="113.6431884765625" fill="rgb(18, 168, 178)" />
<circle cx="4225.4931640625" cy="-11.63018798828125" r="114.1646728515625" fill="rgb(77, 86, 250)" />
<circle cx="-848.3631591796875" cy="3663.93310546875" r="125.35591125488281" fill="rgb(8, 182, 166)" />
<circle cx="-526.105224609375" cy="-1895.5484619140625" r="297.581298828125" fill="rgb(30, 152, 192)" />
<circle cx="-4225.947265625" cy="2277.720947265625" r="108.54248809814453" fill="rgb(10, 179, 168)" />
<circle cx="-5970.98388671875" cy="-2707.0595703125" r="110.82127380371094" fill="rgb(22, 163, 183)" />
<circle cx="7598.123046875" cy="-930.5582275390625" r="115.25093078613281" fill="rgb(65, 103, 236)" />
<circle cx="3931.652587890625" cy="4862.83203125" r="123.2562026977539" fill="rgb(81, 81, 255)" />
<circle cx="2202.071533203125" cy="-5197.767578125" r="113.47001647949219" fill="rgb(49, 125, 216)" />
<circle cx="5161.26318359375" cy="1042.9312744140625" r="116.35096740722656" fill="rgb(79, 84, 253)" />
<circle cx="3080.951416015625" cy="-4768.3857421875" r="126.97152709960938" fill="rgb(43, 133, 209)" />
<circle cx="2256.5439453125" cy="-4667.080078125" r="131.3657684326172" fill="rgb(43, 133, 209)" />
<circle cx="-775.149658203125" cy="2080.4248046875" r="114.76094055175781" fill="rgb(10, 179, 168)" />
<circle cx="704.322998046875" cy="784.2109375" r="136.95843505859375" fill="rgb(12, 177, 170)" />
<circle cx="-2812.9052734375" cy="-2042.85498046875" r="128.02630615234375" fill="rgb(40, 138, 204)" />
<circle cx="-1204.91796875" cy="459.3157958984375" r="131.24179077148438" fill="rgb(14, 174, 173)" />
<circle cx="3533.3115234375" cy="-4726.4716796875" r="156.5701446533203" fill="rgb(41, 136, 207)" />
<circle cx="4617.017578125" cy="-3851.101806640625" r="116.48675537109375" fill="rgb(81, 81, 255)" />
<circle cx="6326.107421875" cy="3222.344970703125" r="135.1519317626953" fill="rgb(75, 89, 248)" />
<circle cx="-1026.8504638671875" cy="-711.7607421875" r="156.72561645507812" fill="rgb(30, 152, 192)" />
<circle cx="-4218.6962890625" cy="-5045.330078125" r="918.2923583984375" fill="rgb(28, 155, 190)" />
<circle cx="-4549.88720703125" cy="2330.72607421875" r="117.20108795166016" fill="rgb(10, 179, 168)" />
<circle cx="156.5963134765625" cy="1077.0069580078125" r="126.2257080078125" fill="rgb(10, 179, 168)" />
<circle cx="502.256591796875" cy="3355.743408203125" r="118.66911315917969" fill="rgb(10, 179, 168)" />
<circle cx="-2115.270263671875" cy="1360.0111083984375" r="117.15188598632812" fill="rgb(6, 185, 163)" />
<circle cx="-1233.805908203125" cy="3367.141357421875" r="114.37523651123047" fill="rgb(6, 185, 163)" />
<circle cx="5055.63623046875" cy="150.04168701171875" r="103.9475326538086" fill="rgb(63, 106, 233)" />
<circle cx="-2072.5537109375" cy="240.7572021484375" r="127.89445495605469" fill="rgb(30, 152, 192)" />
<circle cx="-1506.18505859375" cy="-386.9071044921875" r="139.83741760253906" fill="rgb(30, 152, 192)" />
<circle cx="8859.080078125" cy="-1881.54248046875" r="138.79248046875" fill="rgb(63, 106, 233)" />
</svg>