 <svg xmlns="http://www.w3.org/2000/svg" viewBox="-6570.6075439453125 -7652.4161376953125 15568.480102539062 12886.992584228516" style="background-color:black">
<circle cx="3853.7412109375" cy="234.36395263671875" r="110.65400695800781" fill="rgb(0, 193, 156)" />
<circle cx="6832.63037109375" cy="2122.09423828125" r="131.34608459472656" fill="rgb(0, 193, 156)" />
<circle cx="619.387939453125" cy="1461.7822265625" r="140.7583770751953" fill="rgb(0, 193, 156)" />
<circle cx="-5634.41357421875" cy="-3649.92333984375" r="107.0055923461914" fill="rgb(0, 193, 156)" />
<circle cx="-5509.39111328125" cy="-1586.98681640625" r="119.68452453613281" fill="rgb(0, 193, 156)" />
<circle cx="2676.271728515625" cy="-4940.12890625" r="134.66783142089844" fill="rgb(0, 193, 156)" />
<circle cx="-2904.654052734375" cy="-2432.20458984375" r="139.18605041503906" fill="rgb(0, 193, 156)" />
<circle cx="-5868.783203125" cy="-230.1939697265625" r="369.8274230957031" fill="rgb(0, 193, 156)" />
<circle cx="-1713.16552734375" cy="-6652.806640625" r="486.2560119628906" fill="rgb(0, 193, 156)" />
<circle cx="-5731.283203125" cy="-1806.69482421875" r="109.07184600830078" fill="rgb(0, 193, 156)" />
<circle cx="-364.912353515625" cy="959.383544921875" r="127.35525512695312" fill="rgb(0, 193, 156)" />
<circle cx="6574.0068359375" cy="-5861.07861328125" r="386.8199157714844" fill="rgb(0, 193, 156)" />
<circle cx="7979.52587890625" cy="1154.648193359375" r="1000.0" fill="rgb(0, 193, 156)" />
<circle cx="1545.5146484375" cy="-2384.6015625" r="126.7471923828125" fill="rgb(0, 193, 156)" />
<circle cx="3112.251708984375" cy="-4334.466796875" r="140.12472534179688" fill="rgb(0, 193, 156)" />
<circle cx="-5379.25341796875" cy="-3424.65771484375" r="111.88785552978516" fill="rgb(0, 193, 156)" />
<circle cx="-5078.37060546875" cy="-3195.2451171875" r="105.85636138916016" fill="rgb(0, 193, 156)" />
<circle cx="-5975.1953125" cy="-1588.14306640625" r="118.58252716064453" fill="rgb(0, 193, 156)" />
<circle cx="-3582.493896484375" cy="-1463.2188720703125" r="122.48873138427734" fill="rgb(0, 193, 156)" />
<circle cx="2340.59765625" cy="-3590.228515625" r="130.73211669921875" fill="rgb(0, 193, 156)" />
<circle cx="-526.105224609375" cy="-1895.5484619140625" r="297.581298828125" fill="rgb(0, 193, 156)" />
<circle cx="-4225.947265625" cy="2277.720947265625" r="108.54248809814453" fill="rgb(0, 193, 156)" />
<circle cx="-2812.9052734375" cy="-2042.85498046875" r="128.02630615234375" fill="rgb(0, 193, 156)" />
<circle cx="3533.3115234375" cy="-4726.4716796875" r="156.5701446533203" fill="rgb(0, 193, 156)" />
<circle cx="-4218.6962890625" cy="-5045.330078125" r="918.2923583984375" fill="rgb(0, 193, 156)" />
<circle cx="-4549.88720703125" cy="2330.72607421875" r="117.20108795166016" fill="rgb(0, 193, 156)" />
<circle cx="502.256591796875" cy="3355.743408203125" r="118.66911315917969" fill="rgb(0, 193, 156)" />
<circle cx="-2072.5537109375" cy="240.7572021484375" r="127.89445495605469" fill="rgb(0, 193, 156)" />
<circle cx="-1506.18505859375" cy="-386.9071044921875" r="139.83741760253906" fill="rgb(0, 193, 156)" />
</svg>