 <svg xmlns="http://www.w3.org/2000/svg" viewBox="-6570.6075439453125 -7652.4161376953125 15568.480102539062 12886.992584228516" style="background-color:black">
<circle cx="-5750.279296875" cy="-1378.72265625" r="111.31127166748047" fill="rgb(49, 49, 255)" />
<text x="-5900.279296875" y="-1428.72265625" font-family="Arial" font-size="200px"  fill="white" >1</text>
<circle cx="-2521.457763671875" cy="-666.322265625" r="108.74714660644531" fill="rgb(49, 49, 255)" />
<text x="-2671.457763671875" y="-716.322265625" font-family="Arial" font-size="200px"  fill="white" >2</text>
<circle cx="5659.02099609375" cy="3911.39501953125" r="179.17498779296875" fill="rgb(255, 108, 57)" />
<text x="5509.02099609375" y="3861.39501953125" font-family="Arial" font-size="200px"  fill="white" >3</text>
<circle cx="-523.1188354492188" cy="3358.329833984375" r="125.80851745605469" fill="rgb(187, 187, 255)" />
<text x="-673.1188354492188" y="3308.329833984375" font-family="Arial" font-size="200px"  fill="white" >4</text>
<circle cx="3853.7412109375" cy="234.36395263671875" r="110.65400695800781" fill="rgb(255, 108, 57)" />
<text x="3703.7412109375" y="184.36395263671875" font-family="Arial" font-size="200px"  fill="white" >5</text>
<circle cx="8235.27734375" cy="-3378.508544921875" r="122.32540130615234" fill="rgb(203,88,74)" />
<text x="8085.27734375" y="-3428.508544921875" font-family="Arial" font-size="200px"  fill="white" >6</text>
<circle cx="-339.5574951171875" cy="-26.7978515625" r="135.39988708496094" fill="rgb(225,148,140)" />
<text x="-489.5574951171875" y="-76.7978515625" font-family="Arial" font-size="200px"  fill="white" >7</text>
<circle cx="-3638.15478515625" cy="3403.29248046875" r="589.804931640625" fill="rgb(240,189,185)" />
<text x="-3788.15478515625" y="3353.29248046875" font-family="Arial" font-size="200px"  fill="white" >8</text>
<circle cx="-356.838134765625" cy="-1077.4267578125" r="239.41323852539062" fill="rgb(233,171,164)" />
<text x="-506.838134765625" y="-1127.4267578125" font-family="Arial" font-size="200px"  fill="white" >9</text>
<circle cx="6832.63037109375" cy="2122.09423828125" r="131.34608459472656" fill="rgb(195,66,49)" />
<text x="6682.63037109375" y="2072.09423828125" font-family="Arial" font-size="200px"  fill="white" >10</text>
<circle cx="2659.42919921875" cy="-5410.9794921875" r="125.08238220214844" fill="rgb(0, 193, 156)" />
<text x="2509.42919921875" y="-5460.9794921875" font-family="Arial" font-size="200px"  fill="white" >11</text>
<circle cx="-1645.135498046875" cy="2612.39453125" r="115.85310363769531" fill="rgb(241,193,189)" />
<text x="-1795.135498046875" y="2562.39453125" font-family="Arial" font-size="200px"  fill="white" >12</text>
<circle cx="4147.9501953125" cy="1517.141845703125" r="106.20270538330078" fill="rgb(191,54,37)" />
<text x="3997.9501953125" y="1467.141845703125" font-family="Arial" font-size="200px"  fill="white" >13</text>
<circle cx="3583.33447265625" cy="587.9957885742188" r="105.80912780761719" fill="rgb(255, 108, 57)" />
<text x="3433.33447265625" y="537.9957885742188" font-family="Arial" font-size="200px"  fill="white" >14</text>
<circle cx="4714.49560546875" cy="-145.30303955078125" r="114.62908935546875" fill="rgb(202,84,70)" />
<text x="4564.49560546875" y="-195.30303955078125" font-family="Arial" font-size="200px"  fill="white" >15</text>
<circle cx="4828.83740234375" cy="4510.07275390625" r="132.8180389404297" fill="rgb(191,54,37)" />
<text x="4678.83740234375" y="4460.07275390625" font-family="Arial" font-size="200px"  fill="white" >16</text>
<circle cx="767.485107421875" cy="3009.769287109375" r="129.48841857910156" fill="rgb(239,186,181)" />
<text x="617.485107421875" y="2959.769287109375" font-family="Arial" font-size="200px"  fill="white" >17</text>
<circle cx="4642.90478515625" cy="286.83953857421875" r="103.53034210205078" fill="rgb(202,84,70)" />
<text x="4492.90478515625" y="236.83953857421875" font-family="Arial" font-size="200px"  fill="white" >18</text>
<circle cx="-5531.59912109375" cy="1658.017822265625" r="113.08038330078125" fill="rgb(236,178,173)" />
<text x="-5681.59912109375" y="1608.017822265625" font-family="Arial" font-size="200px"  fill="white" >19</text>
<circle cx="-5381.87158203125" cy="-3035.6533203125" r="105.9685287475586" fill="rgb(230,163,156)" />
<text x="-5531.87158203125" y="-3085.6533203125" font-family="Arial" font-size="200px"  fill="white" >20</text>
<circle cx="688.4296875" cy="-7215.52587890625" r="162.06919860839844" fill="rgb(220,133,123)" />
<text x="538.4296875" y="-7265.52587890625" font-family="Arial" font-size="200px"  fill="white" >21</text>
<circle cx="619.387939453125" cy="1461.7822265625" r="140.7583770751953" fill="rgb(239,186,181)" />
<text x="469.387939453125" y="1411.7822265625" font-family="Arial" font-size="200px"  fill="white" >22</text>
<circle cx="3966.75830078125" cy="747.3573608398438" r="111.51199340820312" fill="rgb(191,54,37)" />
<text x="3816.75830078125" y="697.3573608398438" font-family="Arial" font-size="200px"  fill="white" >23</text>
<circle cx="-3272.029541015625" cy="-2093.50341796875" r="110.04199981689453" fill="rgb(218,129,119)" />
<text x="-3422.029541015625" y="-2143.50341796875" font-family="Arial" font-size="200px"  fill="white" >24</text>
<circle cx="6924.65087890625" cy="2475.501953125" r="112.92098999023438" fill="rgb(195,66,49)" />
<text x="6774.65087890625" y="2425.501953125" font-family="Arial" font-size="200px"  fill="white" >25</text>
<circle cx="-5634.41357421875" cy="-3649.92333984375" r="107.0055923461914" fill="rgb(230,163,156)" />
<text x="-5784.41357421875" y="-3699.92333984375" font-family="Arial" font-size="200px"  fill="white" >26</text>
<circle cx="4153.91650390625" cy="-6676.97412109375" r="148.27757263183594" fill="rgb(210,107,94)" />
<text x="4003.91650390625" y="-6726.97412109375" font-family="Arial" font-size="200px"  fill="white" >27</text>
<circle cx="1945.891357421875" cy="-4263.93359375" r="144.2100067138672" fill="rgb(0, 193, 156)" />
<text x="1795.891357421875" y="-4313.93359375" font-family="Arial" font-size="200px"  fill="white" >28</text>
<circle cx="-5509.39111328125" cy="-1586.98681640625" r="119.68452453613281" fill="rgb(49, 49, 255)" />
<text x="-5659.39111328125" y="-1636.98681640625" font-family="Arial" font-size="200px"  fill="white" >29</text>
<circle cx="-1176.7548828125" cy="2395.06591796875" r="117.55333709716797" fill="rgb(240,189,185)" />
<text x="-1326.7548828125" y="2345.06591796875" font-family="Arial" font-size="200px"  fill="white" >30</text>
<circle cx="8473.20703125" cy="-1747.26318359375" r="110.32144165039062" fill="rgb(202,84,70)" />
<text x="8323.20703125" y="-1797.26318359375" font-family="Arial" font-size="200px"  fill="white" >31</text>
<circle cx="-3757.142822265625" cy="4262.7177734375" r="115.8235855102539" fill="rgb(240,189,185)" />
<text x="-3907.142822265625" y="4212.7177734375" font-family="Arial" font-size="200px"  fill="white" >32</text>
<circle cx="1638.98193359375" cy="-7315.599609375" r="336.8165283203125" fill="rgb(218,129,119)" />
<text x="1488.98193359375" y="-7365.599609375" font-family="Arial" font-size="200px"  fill="white" >33</text>
<circle cx="-2334.919921875" cy="-5590.00244140625" r="112.66319274902344" fill="rgb(225,148,140)" />
<text x="-2484.919921875" y="-5640.00244140625" font-family="Arial" font-size="200px"  fill="white" >34</text>
<circle cx="-882.074951171875" cy="1007.392578125" r="130.77540588378906" fill="rgb(187, 187, 255)" />
<text x="-1032.074951171875" y="957.392578125" font-family="Arial" font-size="200px"  fill="white" >35</text>
<circle cx="3594.01025390625" cy="5044.9560546875" r="189.62039184570312" fill="rgb(190,51,33)" />
<text x="3444.01025390625" y="4994.9560546875" font-family="Arial" font-size="200px"  fill="white" >36</text>
<circle cx="3886.253662109375" cy="-3325.629150390625" r="116.73470306396484" fill="rgb(242,157,179)" />
<text x="3736.253662109375" y="-3375.629150390625" font-family="Arial" font-size="200px"  fill="white" >37</text>
<circle cx="4323.818359375" cy="2043.734619140625" r="116.29586791992188" fill="rgb(191,54,37)" />
<text x="4173.818359375" y="1993.734619140625" font-family="Arial" font-size="200px"  fill="white" >38</text>
<circle cx="3814.806396484375" cy="-3806.127685546875" r="131.43856811523438" fill="rgb(242,157,179)" />
<text x="3664.806396484375" y="-3856.127685546875" font-family="Arial" font-size="200px"  fill="white" >39</text>
<circle cx="-2085.157958984375" cy="2402.7548828125" r="119.33031463623047" fill="rgb(240,189,185)" />
<text x="-2235.157958984375" y="2352.7548828125" font-family="Arial" font-size="200px"  fill="white" >40</text>
<circle cx="-2856.08642578125" cy="1013.4736328125" r="198.7906494140625" fill="rgb(230,163,156)" />
<text x="-3006.08642578125" y="963.4736328125" font-family="Arial" font-size="200px"  fill="white" >41</text>
<circle cx="2676.271728515625" cy="-4940.12890625" r="134.66783142089844" fill="rgb(0, 193, 156)" />
<text x="2526.271728515625" y="-4990.12890625" font-family="Arial" font-size="200px"  fill="white" >42</text>
<circle cx="4245.59375" cy="466.85418701171875" r="110.3175048828125" fill="rgb(191,54,37)" />
<text x="4095.59375" y="416.85418701171875" font-family="Arial" font-size="200px"  fill="white" >43</text>
<circle cx="5977.6953125" cy="-5586.5654296875" r="147.27593994140625" fill="rgb(206,96,82)" />
<text x="5827.6953125" y="-5636.5654296875" font-family="Arial" font-size="200px"  fill="white" >44</text>
<circle cx="-5262.775390625" cy="1476.0792236328125" r="122.49266815185547" fill="rgb(236,178,173)" />
<text x="-5412.775390625" y="1426.0792236328125" font-family="Arial" font-size="200px"  fill="white" >45</text>
<circle cx="801.56201171875" cy="4705.2978515625" r="106.06101989746094" fill="rgb(246,205,202)" />
<text x="651.56201171875" y="4655.2978515625" font-family="Arial" font-size="200px"  fill="white" >46</text>
<circle cx="-5597.45654296875" cy="-2745.07861328125" r="114.57792663574219" fill="rgb(230,163,156)" />
<text x="-5747.45654296875" y="-2795.07861328125" font-family="Arial" font-size="200px"  fill="white" >47</text>
<circle cx="-6083.34716796875" cy="-3066.6083984375" r="106.15547180175781" fill="rgb(230,163,156)" />
<text x="-6233.34716796875" y="-3116.6083984375" font-family="Arial" font-size="200px"  fill="white" >48</text>
<circle cx="537.594482421875" cy="-405.4736328125" r="121.3395004272461" fill="rgb(225,148,140)" />
<text x="387.594482421875" y="-455.4736328125" font-family="Arial" font-size="200px"  fill="white" >49</text>
<circle cx="927.2705078125" cy="-1484.5108642578125" r="125.31458282470703" fill="rgb(224,144,136)" />
<text x="777.2705078125" y="-1534.5108642578125" font-family="Arial" font-size="200px"  fill="white" >50</text>
<circle cx="-1567.915283203125" cy="121.791259765625" r="127.58943176269531" fill="rgb(236,178,173)" />
<text x="-1717.915283203125" y="71.791259765625" font-family="Arial" font-size="200px"  fill="white" >51</text>
<circle cx="-5551.47998046875" cy="1292.944091796875" r="120.90657043457031" fill="rgb(236,178,173)" />
<text x="-5701.47998046875" y="1242.944091796875" font-family="Arial" font-size="200px"  fill="white" >52</text>
<circle cx="7098.3857421875" cy="-141.8875732421875" r="178.89752197265625" fill="rgb(199,77,61)" />
<text x="6948.3857421875" y="-191.8875732421875" font-family="Arial" font-size="200px"  fill="white" >53</text>
<circle cx="-2904.654052734375" cy="-2432.20458984375" r="139.18605041503906" fill="rgb(218,129,119)" />
<text x="-3054.654052734375" y="-2482.20458984375" font-family="Arial" font-size="200px"  fill="white" >54</text>
<circle cx="4580.55908203125" cy="684.4332885742188" r="105.92720031738281" fill="rgb(191,54,37)" />
<text x="4430.55908203125" y="634.4332885742188" font-family="Arial" font-size="200px"  fill="white" >55</text>
<circle cx="741.0048828125" cy="4999.677734375" r="102.31814575195312" fill="rgb(246,205,202)" />
<text x="591.0048828125" y="4949.677734375" font-family="Arial" font-size="200px"  fill="white" >56</text>
<circle cx="3792.119873046875" cy="-4369.6044921875" r="121.06597137451172" fill="rgb(242,157,179)" />
<text x="3642.119873046875" y="-4419.6044921875" font-family="Arial" font-size="200px"  fill="white" >57</text>
<circle cx="-1854.901611328125" cy="4919.953125" r="112.39950561523438" fill="rgb(241,193,189)" />
<text x="-2004.901611328125" y="4869.953125" font-family="Arial" font-size="200px"  fill="white" >58</text>
<circle cx="-3639.8955078125" cy="-2239.880615234375" r="109.44770812988281" fill="rgb(218,129,119)" />
<text x="-3789.8955078125" y="-2289.880615234375" font-family="Arial" font-size="200px"  fill="white" >59</text>
<circle cx="-4150.30517578125" cy="1691.0174560546875" r="113.81242370605469" fill="rgb(187, 187, 255)" />
<text x="-4300.30517578125" y="1641.0174560546875" font-family="Arial" font-size="200px"  fill="white" >60</text>
<circle cx="-6154.54248046875" cy="268.7647705078125" r="111.97247314453125" fill="rgb(233,171,164)" />
<text x="-6304.54248046875" y="218.7647705078125" font-family="Arial" font-size="200px"  fill="white" >61</text>
<circle cx="-4287.67919921875" cy="-3848.819580078125" r="115.71337890625" fill="rgb(226,152,144)" />
<text x="-4437.67919921875" y="-3898.819580078125" font-family="Arial" font-size="200px"  fill="white" >62</text>
<circle cx="97.002685546875" cy="3141.578369140625" r="128.72291564941406" fill="rgb(187, 187, 255)" />
<text x="-52.997314453125" y="3091.578369140625" font-family="Arial" font-size="200px"  fill="white" >63</text>
<circle cx="4373.5986328125" cy="-3196.93359375" r="135.91546630859375" fill="rgb(242,157,179)" />
<text x="4223.5986328125" y="-3246.93359375" font-family="Arial" font-size="200px"  fill="white" >64</text>
<circle cx="3136.833984375" cy="-2763.6533203125" r="139.46942138671875" fill="rgb(108,38,122)" />
<text x="2986.833984375" y="-2813.6533203125" font-family="Arial" font-size="200px"  fill="white" >65</text>
<circle cx="-6328.22607421875" cy="-2787.2294921875" r="118.94854736328125" fill="rgb(230,163,156)" />
<text x="-6478.22607421875" y="-2837.2294921875" font-family="Arial" font-size="200px"  fill="white" >66</text>
<circle cx="2758.348388671875" cy="-4000.455810546875" r="142.09060668945312" fill="rgb(108,38,122)" />
<text x="2608.348388671875" y="-4050.455810546875" font-family="Arial" font-size="200px"  fill="white" >67</text>
<circle cx="3473.120361328125" cy="-4095.065185546875" r="150.23362731933594" fill="rgb(108,38,122)" />
<text x="3323.120361328125" y="-4145.065185546875" font-family="Arial" font-size="200px"  fill="white" >68</text>
<circle cx="-1354.313232421875" cy="1141.728759765625" r="125.818359375" fill="rgb(240,189,185)" />
<text x="-1504.313232421875" y="1091.728759765625" font-family="Arial" font-size="200px"  fill="white" >69</text>
<circle cx="-2800.59912109375" cy="-220.1982421875" r="113.9068832397461" fill="rgb(49, 49, 255)" />
<text x="-2950.59912109375" y="-270.1982421875" font-family="Arial" font-size="200px"  fill="white" >70</text>
<circle cx="-3229.33056640625" cy="-1778.0106201171875" r="113.48379516601562" fill="rgb(218,129,119)" />
<text x="-3379.33056640625" y="-1828.0106201171875" font-family="Arial" font-size="200px"  fill="white" >71</text>
<circle cx="-6337.2958984375" cy="-552.5853271484375" r="113.2811050415039" fill="rgb(233,171,164)" />
<text x="-6487.2958984375" y="-602.5853271484375" font-family="Arial" font-size="200px"  fill="white" >72</text>
<circle cx="8427.98828125" cy="-3073.311279296875" r="128.86460876464844" fill="rgb(203,88,74)" />
<text x="8277.98828125" y="-3123.311279296875" font-family="Arial" font-size="200px"  fill="white" >73</text>
<circle cx="189.345458984375" cy="15.1878662109375" r="113.43656921386719" fill="rgb(225,148,140)" />
<text x="39.345458984375" y="-34.8121337890625" font-family="Arial" font-size="200px"  fill="white" >74</text>
<circle cx="4236.64013671875" cy="-3622.943359375" r="129.1046905517578" fill="rgb(242,157,179)" />
<text x="4086.64013671875" y="-3672.943359375" font-family="Arial" font-size="200px"  fill="white" >75</text>
<circle cx="337.18017578125" cy="-969.162109375" r="157.67214965820312" fill="rgb(225,148,140)" />
<text x="187.18017578125" y="-1019.162109375" font-family="Arial" font-size="200px"  fill="white" >76</text>
<circle cx="6669.1279296875" cy="1229.1131591796875" r="123.45692443847656" fill="rgb(198,73,57)" />
<text x="6519.1279296875" y="1179.1131591796875" font-family="Arial" font-size="200px"  fill="white" >77</text>
<circle cx="819.3359375" cy="2651.4345703125" r="115.09744262695312" fill="rgb(240,189,185)" />
<text x="669.3359375" y="2601.4345703125" font-family="Arial" font-size="200px"  fill="white" >78</text>
<circle cx="-5868.783203125" cy="-230.1939697265625" r="369.8274230957031" fill="rgb(233,171,164)" />
<text x="-6018.783203125" y="-280.1939697265625" font-family="Arial" font-size="200px"  fill="white" >79</text>
<circle cx="6576.20703125" cy="2376.3984375" r="112.79898071289062" fill="rgb(195,66,49)" />
<text x="6426.20703125" y="2326.3984375" font-family="Arial" font-size="200px"  fill="white" >80</text>
<circle cx="1372.514404296875" cy="-6767.52490234375" r="119.34211730957031" fill="rgb(218,129,119)" />
<text x="1222.514404296875" y="-6817.52490234375" font-family="Arial" font-size="200px"  fill="white" >81</text>
<circle cx="-3547.06396484375" cy="446.1826171875" r="429.50286865234375" fill="rgb(226,152,144)" />
<text x="-3697.06396484375" y="396.1826171875" font-family="Arial" font-size="200px"  fill="white" >82</text>
<circle cx="4111.1083984375" cy="-4732.083984375" r="136.36019897460938" fill="rgb(242,157,179)" />
<text x="3961.1083984375" y="-4782.083984375" font-family="Arial" font-size="200px"  fill="white" >83</text>
<circle cx="-1713.16552734375" cy="-6652.806640625" r="486.2560119628906" fill="rgb(224,144,136)" />
<text x="-1863.16552734375" y="-6702.806640625" font-family="Arial" font-size="200px"  fill="white" >84</text>
<circle cx="-2110.6103515625" cy="1874.42626953125" r="117.86228942871094" fill="rgb(240,189,185)" />
<text x="-2260.6103515625" y="1824.42626953125" font-family="Arial" font-size="200px"  fill="white" >85</text>
<circle cx="-1702.576171875" cy="670.9486083984375" r="133.01089477539062" fill="rgb(49, 49, 255)" />
<text x="-1852.576171875" y="620.9486083984375" font-family="Arial" font-size="200px"  fill="white" >86</text>
<circle cx="-705.08935546875" cy="347.6435546875" r="152.08538818359375" fill="rgb(225,148,140)" />
<text x="-855.08935546875" y="297.6435546875" font-family="Arial" font-size="200px"  fill="white" >87</text>
<circle cx="-1939.907958984375" cy="-880.506591796875" r="125.61566925048828" fill="rgb(225,148,140)" />
<text x="-2089.907958984375" y="-930.506591796875" font-family="Arial" font-size="200px"  fill="white" >88</text>
<circle cx="2770.514404296875" cy="-3508.20166015625" r="135.35855102539062" fill="rgb(108,38,122)" />
<text x="2620.514404296875" y="-3558.20166015625" font-family="Arial" font-size="200px"  fill="white" >89</text>
<circle cx="-5731.283203125" cy="-1806.69482421875" r="109.07184600830078" fill="rgb(49, 49, 255)" />
<text x="-5881.283203125" y="-1856.69482421875" font-family="Arial" font-size="200px"  fill="white" >90</text>
<circle cx="5057.05517578125" cy="567.5370483398438" r="104.10496520996094" fill="rgb(202,84,70)" />
<text x="4907.05517578125" y="517.5370483398438" font-family="Arial" font-size="200px"  fill="white" >91</text>
<circle cx="-1101.13330078125" cy="1695.439453125" r="118.63762664794922" fill="rgb(241,193,189)" />
<text x="-1251.13330078125" y="1645.439453125" font-family="Arial" font-size="200px"  fill="white" >92</text>
<circle cx="-5048.84521484375" cy="-3500.27294921875" r="110.46902465820312" fill="rgb(230,163,156)" />
<text x="-5198.84521484375" y="-3550.27294921875" font-family="Arial" font-size="200px"  fill="white" >93</text>
<circle cx="-364.912353515625" cy="959.383544921875" r="127.35525512695312" fill="rgb(187, 187, 255)" />
<text x="-514.912353515625" y="909.383544921875" font-family="Arial" font-size="200px"  fill="white" >94</text>
<circle cx="2632.844970703125" cy="-3029.4384765625" r="152.62261962890625" fill="rgb(108,38,122)" />
<text x="2482.844970703125" y="-3079.4384765625" font-family="Arial" font-size="200px"  fill="white" >95</text>
<circle cx="3642.0830078125" cy="1516.4189453125" r="107.8045425415039" fill="rgb(200,81,65)" />
<text x="3492.0830078125" y="1466.4189453125" font-family="Arial" font-size="200px"  fill="white" >96</text>
<circle cx="-886.1237182617188" cy="3090.928466796875" r="123.61631774902344" fill="rgb(187, 187, 255)" />
<text x="-1036.1237182617188" y="3040.928466796875" font-family="Arial" font-size="200px"  fill="white" >97</text>
<circle cx="6574.0068359375" cy="-5861.07861328125" r="386.8199157714844" fill="rgb(206,96,82)" />
<text x="6424.0068359375" y="-5911.07861328125" font-family="Arial" font-size="200px"  fill="white" >98</text>
<circle cx="3924.353515625" cy="1171.04541015625" r="113.02528381347656" fill="rgb(191,54,37)" />
<text x="3774.353515625" y="1121.04541015625" font-family="Arial" font-size="200px"  fill="white" >99</text>
<circle cx="-5800.44580078125" cy="-3393.05810546875" r="107.63727569580078" fill="rgb(230,163,156)" />
<text x="-5950.44580078125" y="-3443.05810546875" font-family="Arial" font-size="200px"  fill="white" >100</text>
<circle cx="-634.6915283203125" cy="1489.79052734375" r="116.24273681640625" fill="rgb(241,193,189)" />
<text x="-784.6915283203125" y="1439.79052734375" font-family="Arial" font-size="200px"  fill="white" >101</text>
<circle cx="-2565.0673828125" cy="311.1103515625" r="121.55596923828125" fill="rgb(233,171,164)" />
<text x="-2715.0673828125" y="261.1103515625" font-family="Arial" font-size="200px"  fill="white" >102</text>
<circle cx="3474.521240234375" cy="-3535.28857421875" r="152.14048767089844" fill="rgb(108,38,122)" />
<text x="3324.521240234375" y="-3585.28857421875" font-family="Arial" font-size="200px"  fill="white" >103</text>
<circle cx="7667.62255859375" cy="-4974.6787109375" r="390.8283996582031" fill="rgb(210,107,94)" />
<text x="7517.62255859375" y="-5024.6787109375" font-family="Arial" font-size="200px"  fill="white" >104</text>
<circle cx="4513.0693359375" cy="-4427.130859375" r="129.2837677001953" fill="rgb(190,51,33)" />
<text x="4363.0693359375" y="-4477.130859375" font-family="Arial" font-size="200px"  fill="white" >105</text>
<circle cx="3557.947021484375" cy="4570.01171875" r="120.85147094726562" fill="rgb(190,51,33)" />
<text x="3407.947021484375" y="4520.01171875" font-family="Arial" font-size="200px"  fill="white" >106</text>
<circle cx="269.1103515625" cy="1965.0738525390625" r="117.46281433105469" fill="rgb(239,186,181)" />
<text x="119.1103515625" y="1915.0738525390625" font-family="Arial" font-size="200px"  fill="white" >107</text>
<circle cx="307.012451171875" cy="2767.096923828125" r="136.3798828125" fill="rgb(243,197,193)" />
<text x="157.012451171875" y="2717.096923828125" font-family="Arial" font-size="200px"  fill="white" >108</text>
<circle cx="2666.43994140625" cy="-4451.857421875" r="133.00498962402344" fill="rgb(0, 193, 156)" />
<text x="2516.43994140625" y="-4501.857421875" font-family="Arial" font-size="200px"  fill="white" >109</text>
<circle cx="8655.9052734375" cy="-3400.65771484375" r="184.73617553710938" fill="rgb(203,88,74)" />
<text x="8505.9052734375" y="-3450.65771484375" font-family="Arial" font-size="200px"  fill="white" >110</text>
<circle cx="7979.52587890625" cy="1154.648193359375" r="1000.0" fill="rgb(196,69,53)" />
<text x="7829.52587890625" y="1104.648193359375" font-family="Arial" font-size="200px"  fill="white" >111</text>
<circle cx="-1594.742919921875" cy="2074.0400390625" r="123.46479797363281" fill="rgb(239,186,181)" />
<text x="-1744.742919921875" y="2024.0400390625" font-family="Arial" font-size="200px"  fill="white" >112</text>
<circle cx="8512.546875" cy="-2087.22607421875" r="127.9082260131836" fill="rgb(202,84,70)" />
<text x="8362.546875" y="-2137.22607421875" font-family="Arial" font-size="200px"  fill="white" >113</text>
<circle cx="4296.251953125" cy="965.2946166992188" r="111.83866119384766" fill="rgb(191,54,37)" />
<text x="4146.251953125" y="915.2946166992188" font-family="Arial" font-size="200px"  fill="white" >114</text>
<circle cx="-3667.182861328125" cy="-1870.483154296875" r="115.26077270507812" fill="rgb(218,129,119)" />
<text x="-3817.182861328125" y="-1920.483154296875" font-family="Arial" font-size="200px"  fill="white" >115</text>
<circle cx="3113.26904296875" cy="-3245.27783203125" r="116.35884094238281" fill="rgb(108,38,122)" />
<text x="2963.26904296875" y="-3295.27783203125" font-family="Arial" font-size="200px"  fill="white" >116</text>
<circle cx="-1953.029541015625" cy="-1431.935546875" r="115.28241729736328" fill="rgb(228,156,148)" />
<text x="-2103.029541015625" y="-1481.935546875" font-family="Arial" font-size="200px"  fill="white" >117</text>
<circle cx="1545.5146484375" cy="-2384.6015625" r="126.7471923828125" fill="rgb(108,38,122)" />
<text x="1395.5146484375" y="-2434.6015625" font-family="Arial" font-size="200px"  fill="white" >118</text>
<circle cx="8738.111328125" cy="-1534.3607177734375" r="129.6714324951172" fill="rgb(202,84,70)" />
<text x="8588.111328125" y="-1584.3607177734375" font-family="Arial" font-size="200px"  fill="white" >119</text>
<circle cx="-277.84912109375" cy="2162.40625" r="123.51005554199219" fill="rgb(239,186,181)" />
<text x="-427.84912109375" y="2112.40625" font-family="Arial" font-size="200px"  fill="white" >120</text>
<circle cx="-1453.507080078125" cy="-1015.931396484375" r="106.47820281982422" fill="rgb(233,171,164)" />
<text x="-1603.507080078125" y="-1065.931396484375" font-family="Arial" font-size="200px"  fill="white" >121</text>
<circle cx="-613.7132568359375" cy="-400.95751953125" r="118.95051574707031" fill="rgb(225,148,140)" />
<text x="-763.7132568359375" y="-450.95751953125" font-family="Arial" font-size="200px"  fill="white" >122</text>
<circle cx="631.6607666015625" cy="-1849.5538330078125" r="149.81643676757812" fill="rgb(229,159,152)" />
<text x="481.6607666015625" y="-1899.5538330078125" font-family="Arial" font-size="200px"  fill="white" >123</text>
<circle cx="6734.7783203125" cy="127.8323974609375" r="114.6507339477539" fill="rgb(199,77,61)" />
<text x="6584.7783203125" y="77.8323974609375" font-family="Arial" font-size="200px"  fill="white" >124</text>
<circle cx="-70.53912353515625" cy="3571.255615234375" r="120.4756088256836" fill="rgb(240,189,185)" />
<text x="-220.53912353515625" y="3521.255615234375" font-family="Arial" font-size="200px"  fill="white" >125</text>
<circle cx="3875.63134765625" cy="1914.69189453125" r="107.27715301513672" fill="rgb(195,66,49)" />
<text x="3725.63134765625" y="1864.69189453125" font-family="Arial" font-size="200px"  fill="white" >126</text>
<circle cx="-6454.814453125" cy="123.86346435546875" r="114.29652404785156" fill="rgb(233,171,164)" />
<text x="-6604.814453125" y="73.86346435546875" font-family="Arial" font-size="200px"  fill="white" >127</text>
<circle cx="7893.9189453125" cy="-993.8441162109375" r="111.34078979492188" fill="rgb(200,81,65)" />
<text x="7743.9189453125" y="-1043.8441162109375" font-family="Arial" font-size="200px"  fill="white" >128</text>
<circle cx="5207.86572265625" cy="1689.30615234375" r="107.97180938720703" fill="rgb(199,77,61)" />
<text x="5057.86572265625" y="1639.30615234375" font-family="Arial" font-size="200px"  fill="white" >129</text>
<circle cx="5464.54541015625" cy="296.91741943359375" r="117.3132553100586" fill="rgb(202,84,70)" />
<text x="5314.54541015625" y="246.91741943359375" font-family="Arial" font-size="200px"  fill="white" >130</text>
<circle cx="688.18212890625" cy="139.0230712890625" r="126.50907897949219" fill="rgb(225,148,140)" />
<text x="538.18212890625" y="89.0230712890625" font-family="Arial" font-size="200px"  fill="white" >131</text>
<circle cx="5519.26220703125" cy="1306.017333984375" r="115.87671661376953" fill="rgb(194,62,45)" />
<text x="5369.26220703125" y="1256.017333984375" font-family="Arial" font-size="200px"  fill="white" >132</text>
<circle cx="-2635.478515625" cy="-5772.9833984375" r="114.32604217529297" fill="rgb(225,148,140)" />
<text x="-2785.478515625" y="-5822.9833984375" font-family="Arial" font-size="200px"  fill="white" >133</text>
<circle cx="-1913.3984375" cy="4523.6923828125" r="112.79898071289062" fill="rgb(241,193,189)" />
<text x="-2063.3984375" y="4473.6923828125" font-family="Arial" font-size="200px"  fill="white" >134</text>
<circle cx="-5765.42919921875" cy="-3081.1953125" r="106.01378631591797" fill="rgb(230,163,156)" />
<text x="-5915.42919921875" y="-3131.1953125" font-family="Arial" font-size="200px"  fill="white" >135</text>
<circle cx="-327.10198974609375" cy="2914.65087890625" r="112.65729522705078" fill="rgb(187, 187, 255)" />
<text x="-477.10198974609375" y="2864.65087890625" font-family="Arial" font-size="200px"  fill="white" >136</text>
<circle cx="-4414.2900390625" cy="1534.336181640625" r="115.94558715820312" fill="rgb(187, 187, 255)" />
<text x="-4564.2900390625" y="1484.336181640625" font-family="Arial" font-size="200px"  fill="white" >137</text>
<circle cx="6601.9306640625" cy="840.0236206054688" r="105.58676147460938" fill="rgb(198,73,57)" />
<text x="6451.9306640625" y="790.0236206054688" font-family="Arial" font-size="200px"  fill="white" >138</text>
<circle cx="-1061.419921875" cy="-79.12451171875" r="131.556640625" fill="rgb(225,148,140)" />
<text x="-1211.419921875" y="-129.12451171875" font-family="Arial" font-size="200px"  fill="white" >139</text>
<circle cx="-2252.734375" cy="876.16943359375" r="175.75877380371094" fill="rgb(230,163,156)" />
<text x="-2402.734375" y="826.16943359375" font-family="Arial" font-size="200px"  fill="white" >140</text>
<circle cx="3112.251708984375" cy="-4334.466796875" r="140.12472534179688" fill="rgb(108,38,122)" />
<text x="2962.251708984375" y="-4384.466796875" font-family="Arial" font-size="200px"  fill="white" >141</text>
<circle cx="4910.17333984375" cy="1381.927734375" r="111.79143524169922" fill="rgb(191,54,37)" />
<text x="4760.17333984375" y="1331.927734375" font-family="Arial" font-size="200px"  fill="white" >142</text>
<circle cx="-5379.25341796875" cy="-3424.65771484375" r="111.88785552978516" fill="rgb(230,163,156)" />
<text x="-5529.25341796875" y="-3474.65771484375" font-family="Arial" font-size="200px"  fill="white" >143</text>
<circle cx="3548.33349609375" cy="-3012.243408203125" r="150.5229034423828" fill="rgb(242,157,179)" />
<text x="3398.33349609375" y="-3062.243408203125" font-family="Arial" font-size="200px"  fill="white" >144</text>
<circle cx="4762.39892578125" cy="1003.2577514648438" r="107.14137268066406" fill="rgb(191,54,37)" />
<text x="4612.39892578125" y="953.2577514648438" font-family="Arial" font-size="200px"  fill="white" >145</text>
<circle cx="4177.44873046875" cy="-4101.703125" r="140.16407775878906" fill="rgb(242,157,179)" />
<text x="4027.44873046875" y="-4151.703125" font-family="Arial" font-size="200px"  fill="white" >146</text>
<circle cx="-2609.1611328125" cy="1538.705078125" r="151.5658721923828" fill="rgb(230,163,156)" />
<text x="-2759.1611328125" y="1488.705078125" font-family="Arial" font-size="200px"  fill="white" >147</text>
<circle cx="5493.05029296875" cy="743.4066772460938" r="104.20729064941406" fill="rgb(202,84,70)" />
<text x="5343.05029296875" y="693.4066772460938" font-family="Arial" font-size="200px"  fill="white" >148</text>
<circle cx="-2488.868896484375" cy="-1234.599609375" r="118.7478256225586" fill="rgb(226,152,144)" />
<text x="-2638.868896484375" y="-1284.599609375" font-family="Arial" font-size="200px"  fill="white" >149</text>
<circle cx="5386.759765625" cy="-6502.26953125" r="141.51992797851562" fill="rgb(207,99,86)" />
<text x="5236.759765625" y="-6552.26953125" font-family="Arial" font-size="200px"  fill="white" >150</text>
<circle cx="-3001.27197265625" cy="-775.329833984375" r="131.26145935058594" fill="rgb(230,163,156)" />
<text x="-3151.27197265625" y="-825.329833984375" font-family="Arial" font-size="200px"  fill="white" >151</text>
<circle cx="-2369.703369140625" cy="-2649.79150390625" r="123.70093536376953" fill="rgb(218,129,119)" />
<text x="-2519.703369140625" y="-2699.79150390625" font-family="Arial" font-size="200px"  fill="white" >152</text>
<circle cx="-2417.9853515625" cy="-2273.869873046875" r="122.69338989257812" fill="rgb(218,129,119)" />
<text x="-2567.9853515625" y="-2323.869873046875" font-family="Arial" font-size="200px"  fill="white" >153</text>
<circle cx="-57.2386474609375" cy="-479.000732421875" r="140.04010009765625" fill="rgb(235,174,169)" />
<text x="-207.2386474609375" y="-529.000732421875" font-family="Arial" font-size="200px"  fill="white" >154</text>
<circle cx="-1080.4681396484375" cy="-1395.75390625" r="111.97050476074219" fill="rgb(233,171,164)" />
<text x="-1230.4681396484375" y="-1445.75390625" font-family="Arial" font-size="200px"  fill="white" >155</text>
<circle cx="-1512.348388671875" cy="-1725.49365234375" r="110.86260223388672" fill="rgb(233,171,164)" />
<text x="-1662.348388671875" y="-1775.49365234375" font-family="Arial" font-size="200px"  fill="white" >156</text>
<circle cx="-5078.37060546875" cy="-3195.2451171875" r="105.85636138916016" fill="rgb(230,163,156)" />
<text x="-5228.37060546875" y="-3245.2451171875" font-family="Arial" font-size="200px"  fill="white" >157</text>
<circle cx="-4358.794921875" cy="2564.9990234375" r="105.05347442626953" fill="rgb(239,186,181)" />
<text x="-4508.794921875" y="2514.9990234375" font-family="Arial" font-size="200px"  fill="white" >158</text>
<circle cx="-1498.939697265625" cy="4740.5029296875" r="122.72093963623047" fill="rgb(241,193,189)" />
<text x="-1648.939697265625" y="4690.5029296875" font-family="Arial" font-size="200px"  fill="white" >159</text>
<circle cx="5956.65576171875" cy="3077.453125" r="106.25977325439453" fill="rgb(194,62,45)" />
<text x="5806.65576171875" y="3027.453125" font-family="Arial" font-size="200px"  fill="white" >160</text>
<circle cx="-5975.1953125" cy="-1588.14306640625" r="118.58252716064453" fill="rgb(49, 49, 255)" />
<text x="-6125.1953125" y="-1638.14306640625" font-family="Arial" font-size="200px"  fill="white" >161</text>
<circle cx="4871.54931640625" cy="1993.671630859375" r="108.16859436035156" fill="rgb(199,77,61)" />
<text x="4721.54931640625" y="1943.671630859375" font-family="Arial" font-size="200px"  fill="white" >162</text>
<circle cx="497.7794189453125" cy="4820.4453125" r="100.0" fill="rgb(246,205,202)" />
<text x="347.7794189453125" y="4770.4453125" font-family="Arial" font-size="200px"  fill="white" >163</text>
<circle cx="-3582.493896484375" cy="-1463.2188720703125" r="122.48873138427734" fill="rgb(218,129,119)" />
<text x="-3732.493896484375" y="-1513.2188720703125" font-family="Arial" font-size="200px"  fill="white" >164</text>
<circle cx="3144.6220703125" cy="-3788.390380859375" r="129.0948486328125" fill="rgb(108,38,122)" />
<text x="2994.6220703125" y="-3838.390380859375" font-family="Arial" font-size="200px"  fill="white" >165</text>
<circle cx="3223.23876953125" cy="-5251.771484375" r="162.08999633789062" fill="rgb(242,157,179)" />
<text x="3073.23876953125" y="-5301.771484375" font-family="Arial" font-size="200px"  fill="white" >166</text>
<circle cx="-3383.73486328125" cy="4270.20068359375" r="120.34770202636719" fill="rgb(240,189,185)" />
<text x="-3533.73486328125" y="4220.20068359375" font-family="Arial" font-size="200px"  fill="white" >167</text>
<circle cx="-44.344970703125" cy="427.1904296875" r="131.77310180664062" fill="rgb(49, 49, 255)" />
<text x="-194.344970703125" y="377.1904296875" font-family="Arial" font-size="200px"  fill="white" >168</text>
<circle cx="2352.7431640625" cy="-4064.477294921875" r="125.40313720703125" fill="rgb(0, 193, 156)" />
<text x="2202.7431640625" y="-4114.477294921875" font-family="Arial" font-size="200px"  fill="white" >169</text>
<circle cx="3494.23828125" cy="1072.5911865234375" r="109.4181900024414" fill="rgb(200,81,65)" />
<text x="3344.23828125" y="1022.5911865234375" font-family="Arial" font-size="200px"  fill="white" >170</text>
<circle cx="4569.78369140625" cy="1689.8525390625" r="115.00691986083984" fill="rgb(191,54,37)" />
<text x="4419.78369140625" y="1639.8525390625" font-family="Arial" font-size="200px"  fill="white" >171</text>
<circle cx="-134.68359375" cy="1571.13525390625" r="128.55172729492188" fill="rgb(239,186,181)" />
<text x="-284.68359375" y="1521.13525390625" font-family="Arial" font-size="200px"  fill="white" >172</text>
<circle cx="-2623.1376953125" cy="-5422.15966796875" r="110.55758666992188" fill="rgb(225,148,140)" />
<text x="-2773.1376953125" y="-5472.15966796875" font-family="Arial" font-size="200px"  fill="white" >173</text>
<circle cx="4489.46337890625" cy="1295.998046875" r="111.11448669433594" fill="rgb(191,54,37)" />
<text x="4339.46337890625" y="1245.998046875" font-family="Arial" font-size="200px"  fill="white" >174</text>
<circle cx="5319.1357421875" cy="3742.902099609375" r="122.34901428222656" fill="rgb(255, 108, 57)" />
<text x="5169.1357421875" y="3692.902099609375" font-family="Arial" font-size="200px"  fill="white" >175</text>
<circle cx="-1622.763916015625" cy="1546.8529052734375" r="123.98628234863281" fill="rgb(241,193,189)" />
<text x="-1772.763916015625" y="1496.8529052734375" font-family="Arial" font-size="200px"  fill="white" >176</text>
<circle cx="-2115.331298828125" cy="-309.043701171875" r="113.0036392211914" fill="rgb(49, 49, 255)" />
<text x="-2265.331298828125" y="-359.043701171875" font-family="Arial" font-size="200px"  fill="white" >177</text>
<circle cx="3987.864990234375" cy="-2788.53369140625" r="152.67770385742188" fill="rgb(242,157,179)" />
<text x="3837.864990234375" y="-2838.53369140625" font-family="Arial" font-size="200px"  fill="white" >178</text>
<circle cx="8360.7734375" cy="-3720.95703125" r="130.0295867919922" fill="rgb(203,88,74)" />
<text x="8210.7734375" y="-3770.95703125" font-family="Arial" font-size="200px"  fill="white" >179</text>
<circle cx="2340.59765625" cy="-3590.228515625" r="130.73211669921875" fill="rgb(108,38,122)" />
<text x="2190.59765625" y="-3640.228515625" font-family="Arial" font-size="200px"  fill="white" >180</text>
<circle cx="-1940.9014892578125" cy="-2428.2373046875" r="118.93083953857422" fill="rgb(218,129,119)" />
<text x="-2090.9014892578125" y="-2478.2373046875" font-family="Arial" font-size="200px"  fill="white" >181</text>
<circle cx="4609.21484375" cy="4233.1826171875" r="127.35919189453125" fill="rgb(191,54,37)" />
<text x="4459.21484375" y="4183.1826171875" font-family="Arial" font-size="200px"  fill="white" >182</text>
<circle cx="3777.466552734375" cy="-5130.2001953125" r="135.34280395507812" fill="rgb(242,157,179)" />
<text x="3627.466552734375" y="-5180.2001953125" font-family="Arial" font-size="200px"  fill="white" >183</text>
<circle cx="-5433.189453125" cy="683.8743896484375" r="118.11811065673828" fill="rgb(235,174,169)" />
<text x="-5583.189453125" y="633.8743896484375" font-family="Arial" font-size="200px"  fill="white" >184</text>
<circle cx="-6456.96435546875" cy="-242.089599609375" r="113.6431884765625" fill="rgb(233,171,164)" />
<text x="-6606.96435546875" y="-292.089599609375" font-family="Arial" font-size="200px"  fill="white" >185</text>
<circle cx="4225.4931640625" cy="-11.63018798828125" r="114.1646728515625" fill="rgb(255, 108, 57)" />
<text x="4075.4931640625" y="-61.63018798828125" font-family="Arial" font-size="200px"  fill="white" >186</text>
<circle cx="-848.3631591796875" cy="3663.93310546875" r="125.35591125488281" fill="rgb(240,189,185)" />
<text x="-998.3631591796875" y="3613.93310546875" font-family="Arial" font-size="200px"  fill="white" >187</text>
<circle cx="-526.105224609375" cy="-1895.5484619140625" r="297.581298828125" fill="rgb(225,148,140)" />
<text x="-676.105224609375" y="-1945.5484619140625" font-family="Arial" font-size="200px"  fill="white" >188</text>
<circle cx="-4225.947265625" cy="2277.720947265625" r="108.54248809814453" fill="rgb(239,186,181)" />
<text x="-4375.947265625" y="2227.720947265625" font-family="Arial" font-size="200px"  fill="white" >189</text>
<circle cx="-5970.98388671875" cy="-2707.0595703125" r="110.82127380371094" fill="rgb(230,163,156)" />
<text x="-6120.98388671875" y="-2757.0595703125" font-family="Arial" font-size="200px"  fill="white" >190</text>
<circle cx="7598.123046875" cy="-930.5582275390625" r="115.25093078613281" fill="rgb(200,81,65)" />
<text x="7448.123046875" y="-980.5582275390625" font-family="Arial" font-size="200px"  fill="white" >191</text>
<circle cx="3931.652587890625" cy="4862.83203125" r="123.2562026977539" fill="rgb(190,51,33)" />
<text x="3781.652587890625" y="4812.83203125" font-family="Arial" font-size="200px"  fill="white" >192</text>
<circle cx="2202.071533203125" cy="-5197.767578125" r="113.47001647949219" fill="rgb(0, 193, 156)" />
<text x="2052.071533203125" y="-5247.767578125" font-family="Arial" font-size="200px"  fill="white" >193</text>
<circle cx="5161.26318359375" cy="1042.9312744140625" r="116.35096740722656" fill="rgb(191,54,37)" />
<text x="5011.26318359375" y="992.9312744140625" font-family="Arial" font-size="200px"  fill="white" >194</text>
<circle cx="3080.951416015625" cy="-4768.3857421875" r="126.97152709960938" fill="rgb(0, 193, 156)" />
<text x="2930.951416015625" y="-4818.3857421875" font-family="Arial" font-size="200px"  fill="white" >195</text>
<circle cx="2256.5439453125" cy="-4667.080078125" r="131.3657684326172" fill="rgb(0, 193, 156)" />
<text x="2106.5439453125" y="-4717.080078125" font-family="Arial" font-size="200px"  fill="white" >196</text>
<circle cx="-775.149658203125" cy="2080.4248046875" r="114.76094055175781" fill="rgb(239,186,181)" />
<text x="-925.149658203125" y="2030.4248046875" font-family="Arial" font-size="200px"  fill="white" >197</text>
<circle cx="704.322998046875" cy="784.2109375" r="136.95843505859375" fill="rgb(187, 187, 255)" />
<text x="554.322998046875" y="734.2109375" font-family="Arial" font-size="200px"  fill="white" >198</text>
<circle cx="-2812.9052734375" cy="-2042.85498046875" r="128.02630615234375" fill="rgb(218,129,119)" />
<text x="-2962.9052734375" y="-2092.85498046875" font-family="Arial" font-size="200px"  fill="white" >199</text>
<circle cx="-1204.91796875" cy="459.3157958984375" r="131.24179077148438" fill="rgb(236,178,173)" />
<text x="-1354.91796875" y="409.3157958984375" font-family="Arial" font-size="200px"  fill="white" >200</text>
<circle cx="3533.3115234375" cy="-4726.4716796875" r="156.5701446533203" fill="rgb(242,157,179)" />
<text x="3383.3115234375" y="-4776.4716796875" font-family="Arial" font-size="200px"  fill="white" >201</text>
<circle cx="4617.017578125" cy="-3851.101806640625" r="116.48675537109375" fill="rgb(190,51,33)" />
<text x="4467.017578125" y="-3901.101806640625" font-family="Arial" font-size="200px"  fill="white" >202</text>
<circle cx="6326.107421875" cy="3222.344970703125" r="135.1519317626953" fill="rgb(194,62,45)" />
<text x="6176.107421875" y="3172.344970703125" font-family="Arial" font-size="200px"  fill="white" >203</text>
<circle cx="-1026.8504638671875" cy="-711.7607421875" r="156.72561645507812" fill="rgb(225,148,140)" />
<text x="-1176.8504638671875" y="-761.7607421875" font-family="Arial" font-size="200px"  fill="white" >204</text>
<circle cx="-4218.6962890625" cy="-5045.330078125" r="918.2923583984375" fill="rgb(226,152,144)" />
<text x="-4368.6962890625" y="-5095.330078125" font-family="Arial" font-size="200px"  fill="white" >205</text>
<circle cx="-4549.88720703125" cy="2330.72607421875" r="117.20108795166016" fill="rgb(239,186,181)" />
<text x="-4699.88720703125" y="2280.72607421875" font-family="Arial" font-size="200px"  fill="white" >206</text>
<circle cx="156.5963134765625" cy="1077.0069580078125" r="126.2257080078125" fill="rgb(239,186,181)" />
<text x="6.5963134765625" y="1027.0069580078125" font-family="Arial" font-size="200px"  fill="white" >207</text>
<circle cx="502.256591796875" cy="3355.743408203125" r="118.66911315917969" fill="rgb(239,186,181)" />
<text x="352.256591796875" y="3305.743408203125" font-family="Arial" font-size="200px"  fill="white" >208</text>
<circle cx="-2115.270263671875" cy="1360.0111083984375" r="117.15188598632812" fill="rgb(241,193,189)" />
<text x="-2265.270263671875" y="1310.0111083984375" font-family="Arial" font-size="200px"  fill="white" >209</text>
<circle cx="-1233.805908203125" cy="3367.141357421875" r="114.37523651123047" fill="rgb(241,193,189)" />
<text x="-1383.805908203125" y="3317.141357421875" font-family="Arial" font-size="200px"  fill="white" >210</text>
<circle cx="5055.63623046875" cy="150.04168701171875" r="103.9475326538086" fill="rgb(202,84,70)" />
<text x="4905.63623046875" y="100.04168701171875" font-family="Arial" font-size="200px"  fill="white" >211</text>
<circle cx="-2072.5537109375" cy="240.7572021484375" r="127.89445495605469" fill="rgb(225,148,140)" />
<text x="-2222.5537109375" y="190.7572021484375" font-family="Arial" font-size="200px"  fill="white" >212</text>
<circle cx="-1506.18505859375" cy="-386.9071044921875" r="139.83741760253906" fill="rgb(225,148,140)" />
<text x="-1656.18505859375" y="-436.9071044921875" font-family="Arial" font-size="200px"  fill="white" >213</text>
<circle cx="8859.080078125" cy="-1881.54248046875" r="138.79248046875" fill="rgb(202,84,70)" />
<text x="8709.080078125" y="-1931.54248046875" font-family="Arial" font-size="200px"  fill="white" >214</text>
</svg>