 <svg xmlns="http://www.w3.org/2000/svg" viewBox="-6570.6075439453125 -7652.4161376953125 15568.480102539062 12886.992584228516" style="background-color:black">
<circle cx="5659.02099609375" cy="3911.39501953125" r="179.17498779296875" fill="rgb(255, 165, 0)" />
<circle cx="-339.5574951171875" cy="-26.7978515625" r="135.39988708496094" fill="rgb(255, 165, 0)" />
<circle cx="-3638.15478515625" cy="3403.29248046875" r="589.804931640625" fill="rgb(255, 165, 0)" />
<circle cx="6832.63037109375" cy="2122.09423828125" r="131.34608459472656" fill="rgb(255, 165, 0)" />
<circle cx="-1645.135498046875" cy="2612.39453125" r="115.85310363769531" fill="rgb(255, 165, 0)" />
<circle cx="4642.90478515625" cy="286.83953857421875" r="103.53034210205078" fill="rgb(255, 165, 0)" />
<circle cx="688.4296875" cy="-7215.52587890625" r="162.06919860839844" fill="rgb(255, 165, 0)" />
<circle cx="619.387939453125" cy="1461.7822265625" r="140.7583770751953" fill="rgb(255, 165, 0)" />
<circle cx="4153.91650390625" cy="-6676.97412109375" r="148.27757263183594" fill="rgb(255, 165, 0)" />
<circle cx="1945.891357421875" cy="-4263.93359375" r="144.2100067138672" fill="rgb(255, 165, 0)" />
<circle cx="-5509.39111328125" cy="-1586.98681640625" r="119.68452453613281" fill="rgb(255, 165, 0)" />
<circle cx="-1176.7548828125" cy="2395.06591796875" r="117.55333709716797" fill="rgb(255, 165, 0)" />
<circle cx="8473.20703125" cy="-1747.26318359375" r="110.32144165039062" fill="rgb(255, 165, 0)" />
<circle cx="1638.98193359375" cy="-7315.599609375" r="336.8165283203125" fill="rgb(255, 165, 0)" />
<circle cx="-2334.919921875" cy="-5590.00244140625" r="112.66319274902344" fill="rgb(255, 165, 0)" />
<circle cx="-2856.08642578125" cy="1013.4736328125" r="198.7906494140625" fill="rgb(255, 165, 0)" />
<circle cx="2676.271728515625" cy="-4940.12890625" r="134.66783142089844" fill="rgb(255, 165, 0)" />
<circle cx="4245.59375" cy="466.85418701171875" r="110.3175048828125" fill="rgb(255, 165, 0)" />
<circle cx="5977.6953125" cy="-5586.5654296875" r="147.27593994140625" fill="rgb(255, 165, 0)" />
<circle cx="-6083.34716796875" cy="-3066.6083984375" r="106.15547180175781" fill="rgb(255, 165, 0)" />
<circle cx="537.594482421875" cy="-405.4736328125" r="121.3395004272461" fill="rgb(255, 165, 0)" />
<circle cx="-1567.915283203125" cy="121.791259765625" r="127.58943176269531" fill="rgb(255, 165, 0)" />
<circle cx="7098.3857421875" cy="-141.8875732421875" r="178.89752197265625" fill="rgb(255, 165, 0)" />
<circle cx="-4150.30517578125" cy="1691.0174560546875" r="113.81242370605469" fill="rgb(255, 165, 0)" />
<circle cx="3136.833984375" cy="-2763.6533203125" r="139.46942138671875" fill="rgb(255, 165, 0)" />
<circle cx="-6328.22607421875" cy="-2787.2294921875" r="118.94854736328125" fill="rgb(255, 165, 0)" />
<circle cx="2758.348388671875" cy="-4000.455810546875" r="142.09060668945312" fill="rgb(255, 165, 0)" />
<circle cx="-6337.2958984375" cy="-552.5853271484375" r="113.2811050415039" fill="rgb(255, 165, 0)" />
<circle cx="337.18017578125" cy="-969.162109375" r="157.67214965820312" fill="rgb(255, 165, 0)" />
<circle cx="819.3359375" cy="2651.4345703125" r="115.09744262695312" fill="rgb(255, 165, 0)" />
<circle cx="-5868.783203125" cy="-230.1939697265625" r="369.8274230957031" fill="rgb(255, 165, 0)" />
<circle cx="-3547.06396484375" cy="446.1826171875" r="429.50286865234375" fill="rgb(255, 165, 0)" />
<circle cx="-1713.16552734375" cy="-6652.806640625" r="486.2560119628906" fill="rgb(255, 165, 0)" />
<circle cx="3642.0830078125" cy="1516.4189453125" r="107.8045425415039" fill="rgb(255, 165, 0)" />
<circle cx="-886.1237182617188" cy="3090.928466796875" r="123.61631774902344" fill="rgb(255, 165, 0)" />
<circle cx="6574.0068359375" cy="-5861.07861328125" r="386.8199157714844" fill="rgb(255, 165, 0)" />
<circle cx="3924.353515625" cy="1171.04541015625" r="113.02528381347656" fill="rgb(255, 165, 0)" />
<circle cx="-634.6915283203125" cy="1489.79052734375" r="116.24273681640625" fill="rgb(255, 165, 0)" />
<circle cx="269.1103515625" cy="1965.0738525390625" r="117.46281433105469" fill="rgb(255, 165, 0)" />
<circle cx="8655.9052734375" cy="-3400.65771484375" r="184.73617553710938" fill="rgb(255, 165, 0)" />
<circle cx="7979.52587890625" cy="1154.648193359375" r="1000.0" fill="rgb(255, 165, 0)" />
<circle cx="-1594.742919921875" cy="2074.0400390625" r="123.46479797363281" fill="rgb(255, 165, 0)" />
<circle cx="8512.546875" cy="-2087.22607421875" r="127.9082260131836" fill="rgb(255, 165, 0)" />
<circle cx="8738.111328125" cy="-1534.3607177734375" r="129.6714324951172" fill="rgb(255, 165, 0)" />
<circle cx="-277.84912109375" cy="2162.40625" r="123.51005554199219" fill="rgb(255, 165, 0)" />
<circle cx="-70.53912353515625" cy="3571.255615234375" r="120.4756088256836" fill="rgb(255, 165, 0)" />
<circle cx="3875.63134765625" cy="1914.69189453125" r="107.27715301513672" fill="rgb(255, 165, 0)" />
<circle cx="5207.86572265625" cy="1689.30615234375" r="107.97180938720703" fill="rgb(255, 165, 0)" />
<circle cx="5519.26220703125" cy="1306.017333984375" r="115.87671661376953" fill="rgb(255, 165, 0)" />
<circle cx="-2635.478515625" cy="-5772.9833984375" r="114.32604217529297" fill="rgb(255, 165, 0)" />
<circle cx="-1913.3984375" cy="4523.6923828125" r="112.79898071289062" fill="rgb(255, 165, 0)" />
<circle cx="-4414.2900390625" cy="1534.336181640625" r="115.94558715820312" fill="rgb(255, 165, 0)" />
<circle cx="-2252.734375" cy="876.16943359375" r="175.75877380371094" fill="rgb(255, 165, 0)" />
<circle cx="-2609.1611328125" cy="1538.705078125" r="151.5658721923828" fill="rgb(255, 165, 0)" />
<circle cx="-57.2386474609375" cy="-479.000732421875" r="140.04010009765625" fill="rgb(255, 165, 0)" />
<circle cx="3144.6220703125" cy="-3788.390380859375" r="129.0948486328125" fill="rgb(255, 165, 0)" />
<circle cx="2352.7431640625" cy="-4064.477294921875" r="125.40313720703125" fill="rgb(255, 165, 0)" />
<circle cx="3494.23828125" cy="1072.5911865234375" r="109.4181900024414" fill="rgb(255, 165, 0)" />
<circle cx="-2623.1376953125" cy="-5422.15966796875" r="110.55758666992188" fill="rgb(255, 165, 0)" />
<circle cx="4489.46337890625" cy="1295.998046875" r="111.11448669433594" fill="rgb(255, 165, 0)" />
<circle cx="-1622.763916015625" cy="1546.8529052734375" r="123.98628234863281" fill="rgb(255, 165, 0)" />
<circle cx="8360.7734375" cy="-3720.95703125" r="130.0295867919922" fill="rgb(255, 165, 0)" />
<circle cx="2340.59765625" cy="-3590.228515625" r="130.73211669921875" fill="rgb(255, 165, 0)" />
<circle cx="-848.3631591796875" cy="3663.93310546875" r="125.35591125488281" fill="rgb(255, 165, 0)" />
<circle cx="-526.105224609375" cy="-1895.5484619140625" r="297.581298828125" fill="rgb(255, 165, 0)" />
<circle cx="6326.107421875" cy="3222.344970703125" r="135.1519317626953" fill="rgb(255, 165, 0)" />
<circle cx="-4218.6962890625" cy="-5045.330078125" r="918.2923583984375" fill="rgb(255, 165, 0)" />
<circle cx="5055.63623046875" cy="150.04168701171875" r="103.9475326538086" fill="rgb(255, 165, 0)" />
<circle cx="8859.080078125" cy="-1881.54248046875" r="138.79248046875" fill="rgb(255, 165, 0)" />
</svg>