 <svg xmlns="http://www.w3.org/2000/svg" viewBox="-6570.6075439453125 -7652.4161376953125 15568.480102539062 12886.992584228516" style="background-color:black">
<circle cx="6832.63037109375" cy="2122.09423828125" r="131.34608459472656" fill="rgb(187, 187, 255)" />
<circle cx="-5381.87158203125" cy="-3035.6533203125" r="105.9685287475586" fill="rgb(187, 187, 255)" />
<circle cx="1945.891357421875" cy="-4263.93359375" r="144.2100067138672" fill="rgb(187, 187, 255)" />
<circle cx="3886.253662109375" cy="-3325.629150390625" r="116.73470306396484" fill="rgb(187, 187, 255)" />
<circle cx="2676.271728515625" cy="-4940.12890625" r="134.66783142089844" fill="rgb(187, 187, 255)" />
<circle cx="4373.5986328125" cy="-3196.93359375" r="135.91546630859375" fill="rgb(187, 187, 255)" />
<circle cx="4111.1083984375" cy="-4732.083984375" r="136.36019897460938" fill="rgb(187, 187, 255)" />
<circle cx="2770.514404296875" cy="-3508.20166015625" r="135.35855102539062" fill="rgb(187, 187, 255)" />
<circle cx="2666.43994140625" cy="-4451.857421875" r="133.00498962402344" fill="rgb(187, 187, 255)" />
<circle cx="3112.251708984375" cy="-4334.466796875" r="140.12472534179688" fill="rgb(187, 187, 255)" />
<circle cx="4177.44873046875" cy="-4101.703125" r="140.16407775878906" fill="rgb(187, 187, 255)" />
<circle cx="3144.6220703125" cy="-3788.390380859375" r="129.0948486328125" fill="rgb(187, 187, 255)" />
<circle cx="3223.23876953125" cy="-5251.771484375" r="162.08999633789062" fill="rgb(187, 187, 255)" />
<circle cx="2352.7431640625" cy="-4064.477294921875" r="125.40313720703125" fill="rgb(187, 187, 255)" />
<circle cx="2340.59765625" cy="-3590.228515625" r="130.73211669921875" fill="rgb(187, 187, 255)" />
<circle cx="3777.466552734375" cy="-5130.2001953125" r="135.34280395507812" fill="rgb(187, 187, 255)" />
<circle cx="2202.071533203125" cy="-5197.767578125" r="113.47001647949219" fill="rgb(187, 187, 255)" />
<circle cx="3080.951416015625" cy="-4768.3857421875" r="126.97152709960938" fill="rgb(187, 187, 255)" />
<circle cx="2256.5439453125" cy="-4667.080078125" r="131.3657684326172" fill="rgb(187, 187, 255)" />
<circle cx="3533.3115234375" cy="-4726.4716796875" r="156.5701446533203" fill="rgb(187, 187, 255)" />
</svg>